# xmcd CD database file
#
# Track frame offsets:
#	150
#	8460
#	31790
#	55640
#	84780
#	111325
#	121125
#	125435
#	147040
#	166455
#	189560
#	209085
#	244350
#
# Disc length: 3475 seconds
#
# Revision: 0
# Processed by: cddbd v1.5.1PL0 Copyright (c) Steve Scherf et al.
# Submitted via: CDex 1.51
#
DISCID=a60d910d
DTITLE=Kutrowatz, Eduard&Johannes - [2004] EspressoPronto
DYEAR=2004
DGENRE=Jazz
TTITLE0=EspressoPronto
TTITLE1=Bagatelle
TTITLE2=Fantasy for two pianos
TTITLE3=Chicken Flirt
TTITLE4=Desafinado
TTITLE5=Honky Tonk
TTITLE6=Three to get ready
TTITLE7=Castilian Blues
TTITLE8=Autumn leaves
TTITLE9=A-Train
TTITLE10=Libertango
TTITLE11=Adiós Nonino
TTITLE12=EspressoPronto
EXTD=YEAR: 2004
EXTT0=
EXTT1=
EXTT2=
EXTT3=
EXTT4=
EXTT5=
EXTT6=
EXTT7=
EXTT8=
EXTT9=
EXTT10=
EXTT11=
EXTT12=
PLAYORDER=
